/* XPM */
static char * error_xpm[] = {
"16 16 3 1",
" 	c None",
".	c #FF7B7B",
"+	c #FF7979",
"                ",
"      .++.      ",
"    ++++++++    ",
"   ++++++++++   ",
"  ++++++++++++  ",
"  ++++++++++++  ",
" .+++++++++++++ ",
" +++        +++ ",
" +++        +++ ",
" .+++++++++++++ ",
"  ++++++++++++  ",
"  ++++++++++++  ",
"   ++++++++++   ",
"    ++++++++    ",
"      .++.      ",
"                "};
