/* XPM */
static char * warning_xpm[] = {
"16 16 3 1",
" 	c None",
".	c #FFBF7B",
"+	c #FFBE79",
"       ..       ",
"      ++++      ",
"      ++++      ",
"     ++++++     ",
"     ++  ++     ",
"    +++  ++.    ",
"    +++  +++    ",
"   ++++  ++++   ",
"  +++++  ++++   ",
"  +++++  +++++  ",
" ++++++++++++++ ",
" ++++++  ++++++ ",
"+++++++  +++++++",
"++++++++++++++++",
"+++++++++++++++ ",
"                "};
